<?xml version="1.0" encoding="UTF-8"?>
<!DOCTYPE svg PUBLIC "-//W3C//DTD SVG 1.1//EN" "http://www.w3.org/Graphics/SVG/1.1/DTD/svg11.dtd">
<!-- Creator: CorelDRAW X7 -->
<svg xmlns="http://www.w3.org/2000/svg" xml:space="preserve" width="149.426mm" height="44.6007mm" version="1.1" style="shape-rendering:geometricPrecision; text-rendering:geometricPrecision; image-rendering:optimizeQuality; fill-rule:evenodd; clip-rule:evenodd"
viewBox="0 0 17340 5176"
 xmlns:xlink="http://www.w3.org/1999/xlink">
 <defs>
  <style type="text/css">
   <![CDATA[
    .fil0 {fill:#002F76;fill-rule:nonzero}
   ]]>
  </style>
 </defs>
 <g id="Layer_x0020_1">
  <metadata id="CorelCorpID_0Corel-Layer"/>
  <g id="_1579011248">
   <path class="fil0" d="M2038 4126c8,73 -22,109 -88,109l-1465 0c-84,0 -130,-45 -139,-134l-131 -1280 -76 0c-63,0 -98,-33 -105,-101l-33 -320c-7,-64 22,-97 85,-97l1616 0c100,0 155,53 166,158l170 1665zm-590 -369l-96 -936 -582 0 96 936 582 0z"/>
   <path class="fil0" d="M2835 3335c7,74 -21,111 -86,111l-358 0c-64,0 -99,-37 -107,-111l-53 -514 -152 0c-63,0 -98,-33 -105,-101l-33 -320c-7,-64 22,-97 86,-97l582 0c80,0 125,45 134,135l92 897z"/>
   <path class="fil0" d="M3965 3737c15,143 -11,262 -79,357 -67,94 -167,141 -300,141l-471 0c-74,0 -114,-32 -121,-97l-32 -320c-7,-67 20,-101 81,-101l262 0c73,0 106,-36 98,-109l-80 -787 -247 0c-68,0 -105,-33 -112,-101l-33 -320c-6,-64 24,-97 92,-97l673 0c82,0 127,45 136,135l133 1299z"/>
   <path class="fil0" d="M5792 4134c7,67 -18,101 -77,101l-1471 0c-61,0 -95,-32 -102,-97l-30 -300c-7,-68 20,-101 81,-101l1012 0 -90 -878c-5,-49 -31,-73 -79,-73l-470 0 24 231c5,48 26,71 62,71l163 0c54,0 83,27 89,81l24 243c7,65 -32,97 -116,97l-364 0c-130,0 -222,-22 -276,-68 -54,-45 -88,-139 -102,-280l-75 -731c-9,-90 30,-135 118,-135l1044 0c298,0 462,147 492,441l143 1398z"/>
   <polygon class="fil0" points="6613,4235 6342,4235 6178,2631 5836,2631 5808,2357 6420,2357 "/>
   <path class="fil0" d="M8093 4235l-286 0 -164 -1604 -1007 0 -28 -274 1153 0c93,0 144,47 154,143l178 1735z"/>
   <polygon class="fil0" points="8825,3262 8554,3340 8481,2631 8119,2631 8091,2357 8732,2357 "/>
   <polygon class="fil0" points="10811,4235 10476,4235 9516,3053 9484,4235 9199,4235 9242,3060 9374,2891 8946,2384 8943,2357 9302,2357 10185,3421 10277,2357 10578,2357 10470,3411 10298,3573 10809,4214 "/>
   <path class="fil0" d="M782 5117l-334 0 -53 -404 -34 0 -9 -70 334 0c23,0 36,12 39,35l57 439zm-75 -68l-43 -336 -204 0 44 336 203 0z"/>
   <polygon class="fil0" points="1107,4689 1040,5117 973,5117 1037,4713 782,4713 754,4491 820,4491 840,4644 1102,4644 "/>
   <polygon class="fil0" points="1341,5117 1278,5117 1226,4713 1147,4713 1138,4643 1279,4643 "/>
   <path class="fil0" d="M1695 4643l15 347c1,18 0,36 -4,52 -9,31 -25,52 -47,64 -13,8 -24,11 -35,11l-229 0 -9 -69 118 0 -109 -335 -54 0 -9 -70 110 0 128 407 18 0c26,0 42,-8 49,-25 7,-15 9,-32 8,-52l-19 -330 69 0z"/>
   <path class="fil0" d="M2134 5117l-66 0 -53 -404 -247 0 -9 -70 278 0c23,0 37,13 40,40l57 434zm-245 0l-68 0 -34 -264 65 -20 37 284z"/>
   <polygon class="fil0" points="2661,4689 2593,5117 2527,5117 2590,4713 2336,4713 2307,4491 2373,4491 2393,4644 2655,4644 "/>
   <path class="fil0" d="M3048 4877c8,60 7,110 -4,151 -8,30 -24,54 -49,73 -17,13 -42,20 -76,20 -44,0 -94,-1 -149,-4l-7 -65c24,1 70,2 140,2 18,0 33,-4 45,-13 16,-11 26,-24 31,-39 7,-19 10,-38 9,-56 -1,-19 -3,-40 -6,-65 -4,-30 -10,-58 -18,-83 -16,-48 -42,-76 -77,-83 -14,-3 -30,-5 -46,-5 -2,0 -19,1 -49,3 -34,2 -61,4 -81,4l-9 -70c65,-5 110,-8 135,-8 27,0 49,3 65,7 26,7 48,19 67,35 20,18 36,42 49,74 14,34 24,75 30,122z"/>
   <path class="fil0" d="M3476 5117l-348 0 -9 -68 223 0 -39 -304c-3,-21 -14,-32 -32,-32l-197 0 -9 -70 219 0c27,0 46,5 56,15 15,13 24,34 27,63l43 328 57 0 9 68z"/>
   <polygon class="fil0" points="3832,4872 3770,4891 3747,4713 3663,4713 3654,4643 3803,4643 "/>
   <polygon class="fil0" points="4310,5117 4232,5117 3999,4819 4003,5117 3937,5117 3936,4821 3965,4778 3861,4650 3860,4643 3943,4643 4157,4912 4169,4643 4239,4643 4223,4909 4185,4950 4309,5112 "/>
   <path class="fil0" d="M4675 4868c7,54 8,98 3,132 -5,36 -19,66 -41,90 -21,21 -50,32 -87,32 -61,0 -122,-2 -185,-5l-8 -68c67,4 128,5 184,5 18,0 34,-6 48,-20 12,-11 20,-25 23,-41 3,-16 4,-37 3,-64 -1,-7 -3,-27 -7,-59 -5,-39 -14,-72 -26,-101 -14,-32 -35,-52 -63,-59 -10,-3 -21,-4 -33,-4 -2,0 -4,0 -7,1l-8 0c-2,0 -10,0 -23,1 -13,1 -23,1 -31,1l21 165 -63 20 -24 -181 -55 3 -9 -69 176 -8c24,0 45,2 63,5 28,5 48,12 61,22 19,13 35,34 50,62 17,33 30,80 38,140z"/>
   <polygon class="fil0" points="4885,5117 4822,5117 4770,4713 4691,4713 4682,4643 4823,4643 "/>
   <path class="fil0" d="M5236 5117l-66 0 -52 -404 -234 0 -8 -70 266 0c22,0 34,13 37,37l57 437z"/>
   <polygon class="fil0" points="5406,4872 5344,4891 5320,4713 5237,4713 5228,4643 5376,4643 "/>
   <polygon class="fil0" points="5883,5117 5806,5117 5573,4819 5576,5117 5510,5117 5509,4821 5538,4778 5435,4650 5434,4643 5517,4643 5731,4912 5742,4643 5812,4643 5797,4909 5758,4950 5882,5112 "/>
   <path class="fil0" d="M6531 5117l-66 0 -47 -364c-4,-27 -17,-40 -41,-40l-158 0 53 404 -149 0 -9 -68 83 0 -44 -336 -48 0 -9 -70 298 0c50,0 79,28 86,84l51 390z"/>
   <polygon class="fil0" points="6725,5117 6662,5117 6610,4713 6531,4713 6522,4643 6663,4643 "/>
   <path class="fil0" d="M7076 5117l-66 0 -52 -404 -233 0 -9 -70 267 0c21,0 33,13 37,37l56 437z"/>
   <polygon class="fil0" points="7246,4872 7184,4891 7161,4713 7077,4713 7068,4643 7216,4643 "/>
   <path class="fil0" d="M7754 4643l0 290c0,37 -2,67 -6,91 -3,21 -11,39 -22,54 -7,11 -20,20 -38,28 -14,8 -31,11 -50,11l-207 0 -101 -403 -53 0 -9 -71 110 0 60 238 23 -11c13,-6 24,-17 34,-34 5,-9 8,-28 8,-54 0,-13 -2,-37 -4,-72l-6 -66 67 0 3 62c1,21 2,51 4,91 0,21 -3,40 -8,56 -8,20 -17,36 -29,46 -8,7 -25,18 -51,33l-22 12 25 104 128 0c31,0 52,-8 64,-26 11,-16 16,-44 15,-85l-3 -294 68 0z"/>
   <polygon class="fil0" points="8014,4694 8284,4694 8288,4739 8066,4739 8081,4886 8301,4886 8306,4932 8085,4932 8104,5115 8324,5115 8329,5161 8062,5161 "/>
   <path class="fil0" d="M8334 4694l47 0 28 282c4,33 6,54 9,62 4,19 11,34 20,47 10,12 24,22 43,31 18,8 37,12 55,12 15,0 30,-3 43,-9 14,-7 25,-16 33,-28 9,-11 14,-26 17,-42 2,-12 1,-36 -2,-73l-29 -282 47 0 29 282c4,41 3,75 -2,101 -6,26 -20,48 -43,67 -23,19 -51,29 -86,29 -38,0 -72,-9 -101,-27 -29,-18 -49,-42 -61,-72 -8,-18 -14,-51 -19,-98l-28 -282z"/>
   <path class="fil0" d="M8731 4694l93 0c53,0 88,2 107,6 29,6 53,20 72,41 20,21 31,46 34,77 3,25 -1,48 -11,67 -10,19 -26,34 -47,44 -22,10 -52,15 -92,15l191 217 -58 0 -191 -217 -26 0 22 217 -47 0 -47 -467zm51 45l16 159 81 1c32,0 55,-3 69,-9 14,-6 25,-15 32,-28 7,-13 10,-28 9,-44 -2,-16 -8,-30 -18,-43 -9,-13 -21,-22 -36,-27 -14,-6 -38,-9 -70,-9l-83 0z"/>
   <path class="fil0" d="M9315 4682c71,0 133,23 186,71 53,47 83,105 90,174 7,69 -12,127 -55,174 -43,48 -99,72 -167,72 -70,0 -132,-24 -184,-71 -53,-48 -83,-105 -89,-173 -5,-45 2,-86 20,-125 18,-38 45,-68 80,-90 36,-21 75,-32 119,-32zm7 45c-35,0 -67,9 -96,27 -30,18 -51,43 -66,73 -14,31 -20,65 -16,102 6,56 30,103 72,141 43,38 92,57 146,57 37,0 70,-8 99,-26 29,-18 51,-42 65,-72 15,-31 20,-65 16,-102 -4,-37 -16,-71 -36,-101 -21,-30 -47,-54 -81,-72 -33,-18 -68,-27 -103,-27z"/>
   <path class="fil0" d="M9625 4694l95 0c51,0 89,4 112,14 24,9 43,24 59,45 15,22 24,47 27,76 3,33 -3,60 -18,82 -15,21 -36,36 -65,45 -17,5 -48,7 -93,7l19 198 -89 0 -47 -467zm108 182l28 0c23,0 38,-1 46,-5 9,-3 15,-8 19,-15 5,-8 6,-17 5,-27 -2,-18 -10,-31 -25,-40 -11,-6 -30,-9 -58,-9l-25 0 10 96z"/>
   <polygon class="fil0" points="9959,4694 10045,4694 10277,5001 10246,4694 10336,4694 10383,5161 10297,5161 10065,4854 10096,5161 10006,5161 "/>
   <polygon class="fil0" points="10404,4694 10493,4694 10540,5161 10451,5161 "/>
   <polygon class="fil0" points="10606,4694 10694,4694 10835,5020 10913,4694 11000,4694 11126,5161 11039,5161 10959,4866 10889,5161 10810,5161 10681,4866 10659,5161 10572,5161 "/>
   <path class="fil0" d="M9296 412c-2933,-70 -4557,458 -4775,515l359 577c0,0 1523,-640 4573,-615 2888,24 5134,1030 5134,1030 0,0 -1794,-1422 -5291,-1507z"/>
   <path class="fil0" d="M10680 317c0,0 -967,-370 -3296,-311 -2027,51 -3031,391 -3165,427l220 342c0,0 1065,-431 2980,-513 1875,-81 3261,55 3261,55z"/>
   <path class="fil0" d="M15079 4372c1,7 7,13 12,13 7,0 11,-6 9,-13l-76 -508c-1,-7 -7,-14 -13,-14 -6,0 -10,7 -9,14l77 508z"/>
   <path class="fil0" d="M13811 4317c1,7 1,14 0,20l-35 0 31 -34c2,4 3,9 4,14z"/>
   <path class="fil0" d="M13751 4332l-12 -81c23,3 44,15 57,32l-45 49z"/>
   <path class="fil0" d="M13731 4332l-59 -49c8,-17 26,-29 47,-32l12 81z"/>
   <path class="fil0" d="M13667 4317c-1,-5 -1,-10 0,-14l41 34 -34 0c-4,-6 -6,-13 -7,-20z"/>
   <path class="fil0" d="M15624 3848c258,0 507,237 554,530 47,292 -124,529 -384,529 -259,0 -507,-237 -554,-529 -47,-293 124,-530 384,-530zm-494 125l65 399c3,21 1,41 -6,58 -4,8 -9,16 -15,22 -4,4 -9,8 -17,12l8 52c5,3 11,7 14,16 0,1 3,22 3,22l45 274c4,28 -15,61 -48,61 -34,0 -65,-33 -69,-61l-138 -855c-9,-54 18,-95 59,-95l9 0c42,0 82,41 90,95zm1084 262l-52 -318c-2,-20 32,-22 35,1 3,19 45,279 45,279 1,7 7,12 12,12 6,0 9,-5 8,-12l-45 -281c-3,-21 28,-19 32,0l45 284c2,6 7,10 12,10 6,0 9,-4 8,-10l-45 -284c-4,-21 31,-20 35,0l45 282c2,6 6,11 12,11 5,0 9,-5 8,-11l-46 -282c-2,-20 30,-20 34,0l52 319c5,33 -13,59 -43,59l-6 0c-6,0 -10,4 -9,9l5 33c1,3 3,5 5,6 3,2 6,1 8,4l79 494c4,20 -11,36 -33,36 -22,0 -42,-16 -45,-36l-79 -491c-1,-3 -1,-5 2,-6 3,-1 7,-3 6,-8l-5 -33c-1,-4 -7,-8 -13,-8l-2 0 -4 0c-29,0 -56,-26 -61,-59zm1096 852c-6,-17 -607,-1531 -2800,-2603l437 2692 2393 0 -30 -89z"/>
   <path class="fil0" d="M15666 4113c129,0 254,118 278,265 23,146 -63,264 -192,264 -130,0 -254,-118 -278,-264 -23,-147 63,-265 192,-265zm95 588c159,0 264,-145 234,-323 -28,-179 -180,-324 -338,-324 -159,0 -264,145 -235,324 29,178 181,323 339,323z"/>
   <path class="fil0" d="M12140 4702c19,-27 25,-36 28,-39l-208 -55 59 -92 203 11 182 -242 -522 -162 87 -85 581 20c0,0 142,-181 196,-214 54,-34 65,-2 53,46 -11,47 -147,244 -147,244l189 661 -56 60 -295 -496 -192 257 72 157 -52 116 -118 -198c0,0 1,7 -28,39 -29,32 -66,20 -32,-28zm-841 -2897l8 74 535 3297 1347 0 -536 -3301c-358,-61 -669,-81 -919,-81 -130,0 -231,5 -296,8 -29,2 -52,3 -65,3l-74 0z"/>
   <path class="fil0" d="M14411 4064l111 689c2,9 -14,18 -36,18l-52 0 10 61c5,32 -20,56 -55,56 -36,0 -69,-24 -74,-56l-10 -61 -591 0 10 61c5,32 -20,56 -56,56 -35,0 -68,-24 -73,-56l-10 -61 -36 0c-23,0 -42,-9 -43,-18l-111 -689c-20,-119 84,-215 233,-215l481 0c148,0 283,96 302,215zm346 1112l-453 -2789c-533,-240 -1024,-388 -1455,-475l530 3264 1378 0z"/>
   <path class="fil0" d="M14340 4653c-44,0 -85,-33 -90,-74 -6,-41 24,-74 68,-74 44,0 84,33 91,74 6,41 -25,74 -69,74z"/>
   <path class="fil0" d="M13656 4505c44,0 85,33 91,74 6,41 -25,74 -69,74 -43,0 -84,-33 -90,-74 -6,-41 24,-74 68,-74z"/>
   <path class="fil0" d="M14120 3902l-459 0c-16,0 -30,-12 -32,-26 -2,-15 9,-26 24,-26l459 0c15,0 30,11 32,26 2,14 -9,26 -24,26z"/>
   <path class="fil0" d="M14304 4337l-463 0c0,-6 0,-13 -1,-19 -8,-53 -59,-95 -115,-95 -56,0 -95,42 -87,95 1,6 3,13 5,19l-35 0c-23,0 -43,-17 -46,-37l-47 -313c-3,-20 12,-36 34,-36l697 0c22,0 42,16 45,36l48 313c2,20 -13,37 -35,37z"/>
  </g>
 </g>
</svg>
